PathFileType	4	(X/Y/Z)	c:/Users/goper/Files/vsCode/490R/osim_files/A01/A01_Fast_05.trc
DataRate	CameraRate	NumFrames	NumMarkers	Units                	OrigDataRate	OrigDataStartFrame	OrigNumFrames
120.00	120.00	7	36	mm	120.0	854	1365
                Frame#	Time	Mobility_markerset:LPSIS			Mobility_markerset:LASIS			Mobility_markerset:LTH1			Mobility_markerset:LTH2			Mobility_markerset:LTH3			Mobility_markerset:LTH4			Mobility_markerset:LLFE			Mobility_markerset:LMFE			Mobility_markerset:LSH1			Mobility_markerset:LSH2			Mobility_markerset:LSH3			Mobility_markerset:LSH4			Mobility_markerset:LLMAL			Mobility_markerset:LMMAL			Mobility_markerset:LCAL			Mobility_markerset:LMTP5			Mobility_markerset:LTOE			Mobility_markerset:LMTP1			Mobility_markerset:RPSIS			Mobility_markerset:RASIS			Mobility_markerset:RTH1			Mobility_markerset:RTH2			Mobility_markerset:RTH3			Mobility_markerset:RTH4			Mobility_markerset:RLFE			Mobility_markerset:RMFE			Mobility_markerset:RSH1			Mobility_markerset:RSH2			Mobility_markerset:RSH3			Mobility_markerset:RSH4			Mobility_markerset:RLMAL			Mobility_markerset:RMMAL			Mobility_markerset:RCAL			Mobility_markerset:RMTP1			Mobility_markerset:RTOE			Mobility_markerset:RMTP5		
		X1	Y1	Z1	X2	Y2	Z2	X3	Y3	Z3	X4	Y4	Z4	X5	Y5	Z5	X6	Y6	Z6	X7	Y7	Z7	X8	Y8	Z8	X9	Y9	Z9	X10	Y10	Z10	X11	Y11	Z11	X12	Y12	Z12	X13	Y13	Z13	X14	Y14	Z14	X15	Y15	Z15	X16	Y16	Z16	X17	Y17	Z17	X18	Y18	Z18	X19	Y19	Z19	X20	Y20	Z20	X21	Y21	Z21	X22	Y22	Z22	X23	Y23	Z23	X24	Y24	Z24	X25	Y25	Z25	X26	Y26	Z26	X27	Y27	Z27	X28	Y28	Z28	X29	Y29	Z29	X30	Y30	Z30	X31	Y31	Z31	X32	Y32	Z32	X33	Y33	Z33	X34	Y34	Z34	X35	Y35	Z35	X36	Y36	Z36

854	7.10833	-771.64911	1018.44769	370.65714	-1016.65692	984.39679	426.41650	-994.28467	670.96094	492.55957	-1017.18079	629.71802	482.85791	-1048.83020	695.39264	489.35242	-1063.70764	652.78546	477.30084	-1079.57410	534.52448	438.82312	-1095.77747	549.54218	301.43539	-1067.60632	367.48621	419.56323	-1075.20129	320.62283	420.17807	-1130.08813	372.19489	419.28839	-1128.07983	325.28729	417.60492	-1128.19702	85.62206	388.81824	-1121.25171	86.14085	308.63605	-1052.73279	51.54898	346.71564	-1273.65955	46.64005	408.98108	-1298.68030	75.27023	342.41321	-1284.53467	61.17561	309.05356	-762.86414	1015.49493	269.50522	-978.88031	944.33789	173.13370	-844.60522	635.86713	118.81043	-836.14801	594.08447	123.76192	-782.15582	641.90692	123.50993	-783.84918	598.30969	129.50905	-797.60547	451.42719	164.49448	-821.48761	462.62796	286.92480	-587.39624	374.73615	177.87852	-556.11346	342.48285	180.95276	-626.28656	328.19528	170.35480	-590.09558	301.33694	175.17450	-445.32123	208.33105	217.97397	-478.29132	205.27838	299.65012	-397.30292	239.64177	269.45050	-482.28091	59.48331	322.63577	-517.92249	57.77881	275.00073	-458.45239	58.66185	204.19101
855	7.11667	-784.68225	1019.71252	370.07355	-1029.93481	986.63855	426.98328	-1004.81049	671.94916	494.10434	-1027.23120	630.45679	483.72263	-1059.74426	695.77649	490.90601	-1073.90637	653.03253	478.23895	-1089.10303	534.74451	439.69876	-1105.18347	549.75983	302.27557	-1073.92175	368.12915	420.15082	-1080.59033	321.18311	420.77490	-1136.50134	371.75964	419.91794	-1132.98389	325.24216	418.28818	-1129.09155	85.44299	388.80933	-1122.31995	86.02627	308.82526	-1053.31274	52.11287	346.72263	-1274.39441	44.23148	408.61353	-1300.05664	71.94836	342.49225	-1285.48157	58.40075	309.07779	-776.01117	1015.49738	268.93439	-992.39526	945.67114	174.64162	-863.79254	634.39838	117.48283	-856.37793	592.32965	122.22457	-801.30988	638.74524	121.91735	-803.93280	595.18085	127.80269	-820.73138	448.71207	161.69061	-845.32190	459.33710	283.94891	-607.87787	378.60727	176.72586	-575.61981	347.30893	179.95865	-644.94189	331.27869	168.37846	-607.97632	306.33969	172.63940	-461.76086	217.31725	217.22957	-494.90839	212.51546	298.68356	-417.40118	252.31447	268.79123	-490.02310	66.17251	322.44916	-524.62781	59.20597	274.35666	-463.78180	66.68808	204.13246
856	7.12500	-797.30420	1021.04181	369.59167	-1042.72729	988.75665	427.84933	-1014.89386	672.95679	494.85788	-1036.74426	631.25159	484.22046	-1070.14636	696.14252	492.32269	-1083.45361	653.20355	479.19379	-1097.95154	535.25964	440.51166	-1114.31360	550.08655	303.06375	-1079.87073	368.81149	420.68530	-1085.76538	321.66125	421.22293	-1142.65527	371.33908	420.43915	-1139.17749	324.62292	418.41312	-1129.94507	85.30555	388.80594	-1123.21948	86.01845	309.02069	-1053.85730	52.61096	346.79221	-1274.80298	42.43541	408.51620	-1301.03125	69.99010	342.60742	-1286.12134	56.56001	309.01529	-788.56207	1015.57526	268.34610	-1005.34296	946.94220	176.10815	-883.16138	633.08167	116.18064	-877.15564	590.73169	120.87898	-820.53528	635.37964	120.20334	-824.62952	591.91418	126.02505	-843.77814	446.56161	159.57741	-870.19391	455.94220	280.66595	-629.09656	382.70480	175.70619	-596.56488	352.51331	178.55495	-664.67096	334.18884	166.80193	-627.39215	310.45813	170.87161	-479.39966	226.03485	216.47672	-512.67780	219.61044	297.85666	-438.82440	264.33051	267.95056	-499.03119	73.28963	321.71994	-532.19257	60.71859	273.29437	-470.60867	75.48722	204.25517
857	7.13333	-809.58276	1022.27155	369.24899	-1055.36279	990.88324	428.79422	-1024.42480	674.70782	495.54193	-1045.82288	631.98779	484.92032	-1079.63428	697.09589	492.88586	-1092.85876	653.38452	480.00049	-1106.34534	535.62677	441.16852	-1122.94739	550.26221	303.77472	-1085.67920	369.44125	421.18576	-1090.77686	322.21231	421.58978	-1148.23242	370.51700	420.11893	-1144.12598	324.24271	418.84311	-1130.56885	85.22295	388.81549	-1124.01355	86.01369	309.13037	-1054.23645	53.04723	346.88913	-1275.20642	41.21989	408.29016	-1301.61511	68.54716	342.38980	-1286.62451	55.19896	308.77197	-800.84369	1015.54395	267.84903	-1018.89069	948.97546	178.03468	-902.68225	632.15796	114.91935	-898.22504	589.67535	119.54000	-840.08704	632.18005	118.20297	-845.70441	588.85516	124.10076	-866.86908	445.20920	157.50482	-895.49860	452.91055	277.22266	-650.80865	386.63193	174.96089	-617.51514	358.02731	177.28697	-685.55884	337.57990	166.27658	-647.18262	314.49673	169.42146	-497.96442	234.39897	215.69577	-532.18225	225.92514	296.87094	-461.82654	275.61942	267.18646	-509.49966	80.33208	320.82028	-540.76013	62.18523	272.11200	-479.47806	84.55401	204.38168
858	7.14167	-821.78174	1023.45392	369.05054	-1067.68762	992.84692	429.92120	-1033.50366	675.72003	496.02206	-1054.72729	632.69324	485.52179	-1089.29138	697.31543	493.56808	-1102.10498	653.59052	480.79489	-1114.78503	535.87585	441.67365	-1131.17761	550.42426	304.60770	-1091.11780	370.09415	421.66312	-1095.28516	322.61832	421.94849	-1153.60974	370.13385	420.46033	-1148.02380	324.35538	419.41357	-1130.74402	85.36384	389.06400	-1124.62024	86.09142	309.25067	-1054.50952	53.42193	346.99106	-1275.59326	40.32735	408.24384	-1302.08142	67.17348	342.38556	-1287.12463	54.00481	308.74533	-812.80115	1015.46979	267.46936	-1031.19263	950.27820	179.36852	-922.33710	631.87366	113.55437	-919.39008	589.27264	118.08525	-859.78436	629.59509	116.24540	-866.90826	586.54944	122.17711	-889.60504	444.59222	155.51790	-920.80542	450.43832	273.71356	-673.18378	390.50162	174.17656	-639.14526	362.60876	176.48343	-706.62976	340.53571	164.99876	-667.17523	318.38474	168.38216	-517.91980	242.20563	215.06027	-552.19843	232.04840	296.62726	-485.64941	285.64978	266.76617	-521.71826	86.80315	319.80786	-550.15460	63.24007	270.84863	-490.34943	93.68003	204.35501
859	7.15000	-833.78967	1024.64514	369.02686	-1079.80933	994.68408	431.23621	-1042.94824	676.33191	496.41452	-1063.33533	633.35431	486.33914	-1098.45215	697.52106	494.09238	-1111.56494	653.64215	481.96954	-1122.19934	536.21191	442.44263	-1138.68030	550.72656	305.02347	-1096.22705	370.65939	422.07999	-1099.83521	323.29263	422.31046	-1158.87341	369.92239	420.96759	-1153.18884	323.85800	419.52838	-1131.39832	85.46827	389.03687	-1125.03979	86.15997	309.28424	-1054.78333	53.75876	347.05911	-1275.85950	40.06806	408.00870	-1302.49048	66.31495	342.07797	-1287.39404	53.11135	308.43964	-824.58478	1015.44135	267.20380	-1043.75403	951.81921	180.94540	-941.99390	632.29114	112.03598	-940.26813	589.57037	116.41243	-879.55670	628.23883	114.51247	-887.87933	585.39874	120.25655	-912.27466	444.73520	153.55554	-945.78693	449.02722	270.59732	-696.21112	393.92642	173.36354	-661.76343	366.69766	175.48799	-728.40729	343.32260	163.66805	-689.28424	321.46445	167.95938	-538.69446	249.36954	214.77252	-573.06421	237.69321	296.45148	-509.21335	294.19922	267.04263	-535.68372	91.40856	318.36618	-559.49988	63.30347	269.64648	-503.73846	102.35999	204.37523
860	7.15833	-845.50250	1026.04309	369.03821	-1091.50098	996.40503	432.78619	-1051.61426	676.98920	497.03656	-1071.90076	633.78943	487.05725	-1107.96777	697.94659	495.25177	-1120.11633	653.90527	482.72079	-1129.25281	536.33234	442.62955	-1145.93433	550.93927	305.38211	-1101.39795	371.36569	422.25537	-1103.96338	323.88992	422.70026	-1163.50220	369.68494	421.20279	-1156.69690	324.16882	420.26047	-1131.84961	85.61215	389.06992	-1125.45251	86.31849	309.33237	-1055.05176	54.13499	347.14590	-1276.10449	39.72854	408.01837	-1302.77808	65.66702	341.94208	-1287.64819	52.57564	308.35651	-836.11212	1015.60046	266.91489	-1056.28650	953.37683	182.37451	-961.63593	633.50494	110.57961	-960.58057	590.71466	114.45197	-899.31586	628.34747	113.26178	-908.46954	585.54346	118.50562	-934.89569	445.39676	151.41042	-970.31152	448.91403	268.10413	-719.90045	397.22537	172.02342	-684.69800	370.45779	174.54803	-750.83521	346.05728	161.79808	-711.22809	324.80524	166.81142	-559.45233	255.72935	214.57265	-594.69891	243.06711	296.44345	-532.37164	301.11115	267.61969	-552.41052	93.80192	317.02774	-569.23834	64.51979	268.13644	-519.70349	109.80894	204.56355
